<?xml version="1.0" standalone="no"?>
<!DOCTYPE svg PUBLIC "-//W3C//DTD SVG 20010904//EN"
 "http://www.w3.org/TR/2001/REC-SVG-20010904/DTD/svg10.dtd">
<svg version="1.0" xmlns="http://www.w3.org/2000/svg"
 width="16.000000pt" height="16.000000pt" viewBox="0 0 16.000000 16.000000"
 preserveAspectRatio="xMidYMid meet">
<metadata>
Created by potrace 1.16, written by Peter Selinger 2001-2019
</metadata>
<g transform="translate(0.000000,16.000000) scale(0.020513,-0.021918)"
fill="#000000" stroke="none">
<path d="M10 365 l0 -355 380 0 380 0 0 355 0 355 -380 0 -380 0 0 -355z m435
240 c23 -39 53 -90 67 -115 26 -47 87 -153 118 -205 44 -75 94 -162 106 -185
l14 -25 -352 -3 c-193 -1 -353 0 -356 2 -2 3 5 20 16 38 11 18 29 49 40 68 11
19 36 64 57 100 21 36 48 84 62 108 13 23 52 91 87 151 34 59 66 116 69 125
11 28 27 15 72 -59z"/>
<path d="M371 578 c-7 -12 -24 -40 -36 -62 -13 -23 -35 -61 -49 -86 -14 -25
-26 -48 -26 -52 0 -3 30 -23 66 -43 61 -34 68 -36 93 -24 52 27 101 62 101 73
0 15 -119 216 -128 216 -4 0 -13 -10 -21 -22z"/>
<path d="M169 233 c-34 -60 -64 -111 -66 -116 -2 -4 57 -7 131 -7 l136 0 0 80
c0 68 -3 82 -17 87 -10 4 -38 19 -62 35 -25 15 -48 28 -52 28 -4 0 -35 -48
-70 -107z"/>
<path d="M475 302 l-60 -37 -3 -78 -3 -77 136 0 c74 0 135 2 135 4 0 12 -127
220 -135 222 -6 2 -37 -14 -70 -34z"/>
</g>
</svg>
